{
	"asset":{
		"generator":"Khronos glTF Blender I/O v3.5.30",
		"version":"2.0"
	},
	"extensionsUsed":[
		"KHR_materials_specular",
		"KHR_materials_ior"
	],
	"scene":0,
	"scenes":[
		{
			"name":"Scene",
			"nodes":[
				0
			]
		}
	],
	"nodes":[
		{
			"mesh":0,
			"name":"Cole_Marotta_File",
			"rotation":[
				0.7071068286895752,
				0,
				0,
				0.7071068286895752
			]
		}
	],
	"materials":[
		{
			"doubleSided":true,
			"extensions":{
				"KHR_materials_specular":{
					"specularColorFactor":[
						0,
						0,
						0
					]
				},
				"KHR_materials_ior":{
					"ior":1.4500000476837158
				}
			},
			"name":"Cole_Marotta_File",
			"pbrMetallicRoughness":{
				"baseColorTexture":{
					"index":0
				},
				"metallicFactor":0
			}
		}
	],
	"meshes":[
		{
			"name":"Cole_Marotta_File",
			"primitives":[
				{
					"attributes":{
						"POSITION":0,
						"TEXCOORD_0":1,
						"NORMAL":2
					},
					"indices":3,
					"material":0
				}
			]
		}
	],
	"textures":[
		{
			"sampler":0,
			"source":0
		}
	],
	"images":[
		{
			"bufferView":4,
			"mimeType":"image/jpeg",
			"name":"Cole Marotta_File"
		}
	],
	"accessors":[
		{
			"bufferView":0,
			"componentType":5126,
			"count":23583,
			"max":[
				0.39695701003074646,
				0.8600000143051147,
				0.14120599627494812
			],
			"min":[
				-0.5644429922103882,
				-0.6946989893913269,
				-4.349946975708008
			],
			"type":"VEC3"
		},
		{
			"bufferView":1,
			"componentType":5126,
			"count":23583,
			"type":"VEC2"
		},
		{
			"bufferView":2,
			"componentType":5126,
			"count":23583,
			"type":"VEC3"
		},
		{
			"bufferView":3,
			"componentType":5123,
			"count":85230,
			"type":"SCALAR"
		}
	],
	"bufferViews":[
		{
			"buffer":0,
			"byteLength":282996,
			"byteOffset":0,
			"target":34962
		},
		{
			"buffer":0,
			"byteLength":188664,
			"byteOffset":282996,
			"target":34962
		},
		{
			"buffer":0,
			"byteLength":282996,
			"byteOffset":471660,
			"target":34962
		},
		{
			"buffer":0,
			"byteLength":170460,
			"byteOffset":754656,
			"target":34963
		},
		{
			"buffer":0,
			"byteLength":1424711,
			"byteOffset":925116
		}
	],
	"samplers":[
		{
			"magFilter":9729,
			"minFilter":9987
		}
	],
	"buffers":[
		{
			"byteLength":2349828,
			"uri":"data:application/octet-stream;base64,"
		}
	]
}
