<?xml version="1.0" standalone="no"?>
<!DOCTYPE svg PUBLIC "-//W3C//DTD SVG 20010904//EN"
 "http://www.w3.org/TR/2001/REC-SVG-20010904/DTD/svg10.dtd">
<svg version="1.0" xmlns="http://www.w3.org/2000/svg"
 width="585.000000pt" height="493.000000pt" viewBox="0 0 585.000000 493.000000"
 preserveAspectRatio="xMidYMid meet">

<g transform="translate(0.000000,493.000000) scale(0.100000,-0.100000)"
fill="#000000" stroke="none">
<path d="M3542 4908 c-7 -7 -12 -22 -12 -35 0 -13 -4 -23 -9 -23 -9 0 -113
-78 -155 -115 -10 -10 -46 -37 -81 -61 -34 -24 -68 -50 -75 -59 -7 -8 -18 -15
-24 -15 -6 0 -32 -19 -56 -43 -25 -23 -76 -67 -115 -97 -38 -30 -78 -63 -87
-72 -25 -24 -39 -23 -76 10 -17 15 -43 37 -58 50 -14 12 -32 22 -40 22 -8 0
-14 4 -14 9 0 4 -74 84 -165 177 -90 92 -171 182 -180 200 -22 47 -41 59 -70
46 -26 -12 -34 -47 -12 -55 9 -4 -27 -24 -53 -29 -3 -1 -11 -7 -18 -14 -7 -7
-19 -11 -27 -8 -8 3 -22 -1 -30 -10 -9 -8 -34 -21 -55 -27 -22 -7 -40 -16 -40
-20 0 -4 -9 -5 -21 -2 -12 3 -24 2 -28 -3 -9 -13 -104 -49 -181 -70 -36 -9
-83 -28 -105 -40 -23 -13 -77 -35 -120 -49 -44 -15 -93 -34 -110 -44 -16 -9
-64 -27 -105 -40 -41 -12 -87 -29 -102 -37 -57 -31 -339 -121 -398 -127 -8 -1
-17 -5 -20 -8 -3 -3 -50 -18 -105 -33 -55 -15 -126 -36 -158 -47 -31 -10 -65
-19 -75 -19 -10 0 -22 -4 -28 -9 -5 -4 -45 -14 -89 -20 -44 -7 -102 -19 -130
-26 -27 -8 -94 -21 -148 -31 -86 -14 -100 -20 -117 -44 -18 -25 -19 -30 -5
-43 8 -9 15 -20 15 -26 0 -6 5 -11 11 -11 6 0 9 -7 5 -15 -3 -9 0 -15 8 -15 8
0 16 -4 18 -8 1 -4 23 -23 48 -42 25 -19 47 -37 50 -40 3 -3 22 -18 43 -33 20
-16 61 -50 90 -78 28 -27 55 -49 60 -49 4 0 15 -16 24 -35 10 -21 24 -35 35
-35 9 0 25 -11 34 -25 9 -13 25 -27 35 -30 11 -4 35 -21 52 -39 18 -18 47 -41
65 -52 52 -30 40 -50 -67 -106 -52 -27 -111 -62 -132 -78 -20 -17 -40 -30 -45
-30 -4 0 -30 -17 -58 -38 -69 -51 -118 -81 -201 -120 -87 -42 -109 -66 -101
-111 7 -44 27 -65 84 -86 26 -10 63 -28 82 -40 19 -12 62 -29 95 -39 33 -10
78 -27 100 -39 91 -47 189 -92 198 -89 4 1 7 -2 7 -7 0 -5 13 -14 29 -21 29
-12 29 -12 23 -73 -4 -34 -6 -129 -6 -212 5 -519 4 -1211 0 -1275 -3 -41 -8
-118 -12 -171 -8 -114 -1 -134 53 -144 21 -3 77 -24 124 -46 47 -21 91 -39 96
-39 6 0 33 -11 60 -24 26 -14 82 -36 124 -49 64 -21 135 -49 274 -108 48 -20
131 -51 142 -53 7 -1 16 -5 19 -9 4 -4 17 -7 30 -7 12 0 24 -6 27 -14 3 -7 34
-19 69 -25 34 -7 69 -18 76 -23 6 -6 12 -7 12 -2 0 4 10 -2 22 -13 29 -25 52
-34 102 -39 22 -2 62 -15 90 -28 28 -13 80 -32 116 -41 36 -10 81 -26 100 -36
19 -9 64 -25 100 -34 36 -9 81 -25 100 -36 19 -10 71 -26 115 -35 44 -9 86
-21 93 -27 7 -6 27 -12 44 -14 17 -2 36 -7 42 -12 11 -9 96 -29 156 -37 19 -2
47 -13 63 -25 26 -19 30 -19 95 -5 110 25 155 40 193 63 20 13 42 23 49 23 19
0 152 39 172 50 10 6 29 10 43 10 14 0 25 4 25 10 0 5 22 16 49 24 71 21 293
105 306 116 6 5 32 14 57 19 26 6 70 25 99 41 28 17 65 34 80 37 16 3 29 9 29
13 0 4 20 11 44 14 24 4 50 13 56 21 7 8 16 13 20 10 5 -3 11 -1 15 4 3 6 12
8 20 4 8 -3 15 1 15 8 0 7 3 9 7 6 3 -4 11 -3 17 1 6 5 40 17 76 27 36 10 70
22 76 27 6 4 33 11 60 14 27 3 65 11 84 19 50 19 202 60 295 80 87 19 264 82
280 101 12 13 67 36 81 33 20 -3 34 1 34 12 0 7 -11 8 -29 4 -27 -6 -30 -3
-42 32 -14 42 -19 441 -7 643 3 63 9 205 12 315 13 433 22 622 31 702 5 45 9
52 33 58 27 6 118 40 204 76 26 10 56 19 68 19 12 0 38 12 57 28 20 15 38 26
40 24 6 -4 57 10 85 25 15 7 31 13 34 12 4 0 10 4 13 10 4 6 20 12 35 13 20 2
31 10 38 27 12 34 -7 70 -33 64 -13 -4 -19 0 -19 11 0 9 -4 16 -10 16 -5 0
-10 7 -10 15 0 8 -4 15 -8 15 -5 0 -51 41 -103 90 -51 50 -97 90 -101 90 -7 0
-115 110 -238 243 -30 32 -68 72 -84 89 l-28 30 28 30 c16 16 70 61 121 99 50
39 93 73 95 77 3 6 86 76 113 94 5 4 30 24 55 45 25 22 68 56 97 77 29 20 54
45 57 54 14 54 15 75 5 93 -6 11 -16 18 -24 15 -7 -2 -16 -2 -19 2 -4 3 -15 7
-26 9 -37 5 -205 66 -221 79 -8 8 -22 14 -29 14 -7 0 -43 14 -79 32 -36 17
-68 32 -71 33 -3 0 -21 11 -40 23 -19 12 -57 29 -85 38 -27 9 -54 20 -60 25
-5 5 -17 9 -27 9 -10 0 -26 4 -36 9 -32 18 -156 69 -317 130 -88 34 -183 71
-210 81 -28 11 -58 20 -67 20 -9 0 -19 4 -22 8 -3 5 -38 21 -78 36 -40 16 -91
36 -113 46 -64 28 -166 67 -225 85 -30 10 -71 24 -90 32 -20 8 -45 16 -55 18
-11 2 -21 4 -22 5 -2 2 -6 3 -10 5 -5 1 -21 7 -38 14 -16 7 -39 14 -50 16 -11
1 -54 19 -95 39 -80 39 -99 43 -118 24z m130 -123 c29 -14 61 -25 71 -25 10 0
37 -9 60 -20 23 -12 69 -28 102 -36 33 -9 65 -19 70 -24 6 -4 52 -22 102 -39
51 -18 143 -54 205 -82 62 -28 131 -56 153 -64 131 -43 372 -135 409 -157 11
-6 49 -21 85 -33 36 -13 87 -32 114 -44 26 -11 48 -20 50 -19 1 0 36 -15 77
-34 128 -61 166 -78 174 -78 14 0 114 -49 120 -59 4 -6 13 -8 21 -4 9 3 22 0
30 -7 8 -7 21 -10 28 -7 7 3 21 -1 32 -9 10 -8 28 -14 39 -14 12 0 29 -7 39
-14 16 -13 15 -16 -22 -45 -21 -17 -44 -31 -50 -31 -6 0 -11 -4 -11 -9 0 -12
-14 -25 -81 -82 -29 -24 -66 -56 -82 -72 -16 -15 -38 -32 -50 -39 -12 -6 -30
-22 -40 -35 -10 -12 -24 -23 -31 -23 -6 0 -33 -20 -59 -45 -27 -25 -52 -45
-56 -45 -5 0 -20 -12 -34 -26 -17 -16 -31 -23 -39 -18 -7 5 -17 9 -23 11 -5 1
-21 4 -34 7 -27 6 -88 24 -111 33 -8 4 -18 6 -22 5 -3 -1 -12 5 -18 13 -7 8
-21 15 -31 15 -11 0 -27 4 -37 9 -54 29 -170 81 -179 81 -6 0 -27 11 -48 26
-21 14 -58 32 -84 41 -25 8 -68 26 -95 39 -26 13 -72 30 -101 39 -29 8 -80 28
-113 45 -34 16 -66 30 -73 30 -6 0 -26 9 -43 19 -17 10 -60 27 -96 37 -36 10
-67 21 -70 24 -3 4 -36 17 -75 30 -38 13 -99 36 -133 52 -35 15 -69 28 -76 28
-7 0 -31 9 -54 20 -22 11 -46 20 -52 20 -5 0 -18 4 -28 10 -38 21 -161 69
-217 85 -135 37 -256 78 -253 84 5 12 80 75 126 105 23 16 42 33 42 37 0 5 5
9 10 9 6 0 22 11 36 25 14 14 29 25 33 25 5 0 26 16 47 35 22 20 82 68 134
107 129 98 155 117 157 118 0 0 25 -11 55 -25z m-1225 -130 c24 -23 43 -43 43
-47 0 -3 51 -57 114 -121 63 -63 111 -119 108 -123 -4 -4 -2 -4 5 0 13 7 49
-18 64 -46 8 -15 0 -22 -50 -47 -32 -17 -61 -27 -65 -24 -3 4 -6 2 -6 -3 0 -9
-36 -30 -90 -51 -14 -6 -43 -18 -65 -28 -22 -10 -44 -20 -50 -21 -27 -7 -231
-87 -241 -95 -6 -5 -13 -6 -17 -3 -3 3 -27 -5 -54 -18 -44 -22 -136 -53 -283
-94 -30 -9 -68 -22 -83 -30 -16 -8 -34 -14 -41 -14 -14 0 -103 -33 -151 -56
-16 -8 -77 -30 -135 -48 -58 -19 -150 -51 -205 -71 -55 -20 -133 -44 -173 -54
-41 -10 -79 -24 -85 -30 -6 -6 -18 -11 -26 -11 -9 0 -29 -7 -44 -15 -16 -8
-42 -16 -58 -17 -16 -1 -29 -5 -29 -9 0 -11 -63 -30 -69 -20 -3 4 -17 12 -31
16 -14 4 -43 23 -64 41 -22 19 -43 34 -47 34 -5 0 -24 16 -43 35 -20 19 -39
35 -43 35 -5 0 -31 23 -58 51 -27 28 -57 55 -67 60 -10 6 -16 14 -13 20 4 5 0
9 -8 9 -7 0 -26 14 -43 31 -16 17 -63 56 -104 87 -58 44 -70 57 -55 60 11 2
75 17 142 33 68 16 126 28 130 27 5 0 15 1 23 5 8 3 49 13 90 22 41 9 100 24
130 34 30 11 62 19 70 20 27 1 213 51 250 68 18 8 14 6 70 22 69 19 268 90
325 116 27 13 65 26 82 30 18 3 35 11 38 16 4 5 15 9 25 9 10 0 20 5 22 10 2
6 53 28 114 49 61 21 128 48 150 58 21 11 61 23 88 27 27 3 57 12 65 19 24 20
69 37 123 47 27 5 64 21 82 35 19 14 49 27 67 28 19 1 45 12 59 24 l25 23 24
-33 c14 -17 44 -50 68 -72z m658 -438 c33 -11 83 -31 110 -45 28 -14 57 -27
65 -29 8 -1 24 -4 35 -6 25 -5 55 -16 77 -28 10 -5 25 -9 33 -9 8 0 15 -3 15
-8 0 -10 119 -52 162 -57 30 -4 54 -13 100 -36 10 -5 25 -9 34 -9 17 0 67 -20
124 -49 19 -10 51 -22 70 -26 19 -3 58 -17 85 -30 100 -47 305 -135 315 -135
5 0 35 -12 67 -26 32 -14 85 -35 118 -45 33 -11 77 -31 97 -44 20 -14 65 -34
100 -46 35 -12 92 -36 128 -54 36 -18 81 -36 100 -40 48 -9 91 -28 87 -38 -4
-12 -108 -48 -118 -41 -5 3 -21 -3 -37 -14 -40 -29 -300 -119 -326 -113 -4 1
-14 -3 -21 -9 -7 -6 -17 -9 -21 -8 -11 3 -132 -30 -156 -43 -10 -5 -24 -9 -32
-9 -18 0 -190 -54 -291 -92 -44 -16 -105 -34 -135 -39 -30 -6 -93 -26 -140
-45 -47 -19 -101 -40 -120 -45 -35 -10 -45 -14 -112 -43 -20 -9 -51 -19 -70
-22 -62 -10 -193 -46 -220 -60 -15 -8 -31 -13 -35 -12 -4 1 -17 -3 -28 -9 -11
-6 -37 -13 -57 -17 -21 -4 -38 -11 -38 -16 0 -5 -20 -12 -45 -16 -25 -3 -45
-10 -45 -15 0 -12 -47 -12 -52 0 -1 5 -50 23 -108 40 -58 17 -141 43 -185 56
-44 14 -98 27 -120 30 -54 8 -63 11 -195 53 -63 20 -116 40 -118 44 -2 4 -15
8 -28 8 -14 0 -35 5 -47 12 -12 7 -31 13 -42 15 -11 2 -39 12 -62 23 -24 11
-53 20 -65 20 -13 0 -48 13 -78 30 -30 16 -63 29 -73 30 -9 0 -25 4 -35 9 -40
22 -130 60 -157 67 -17 4 -46 15 -65 26 -19 10 -42 18 -50 18 -8 0 -24 7 -34
15 -11 8 -26 15 -34 15 -8 0 -37 12 -65 26 -29 14 -71 27 -95 29 -25 2 -63 16
-94 36 -29 17 -66 33 -83 36 -16 3 -40 11 -52 19 -12 8 -30 14 -40 14 -10 0
-27 7 -38 16 -17 13 -18 16 -5 24 8 6 26 13 40 17 14 3 43 13 65 23 45 19 77
30 180 65 39 13 119 41 179 64 60 23 117 41 126 41 15 0 59 15 145 50 11 5 72
24 135 44 154 47 259 83 295 101 99 48 189 84 226 90 23 4 66 20 94 36 29 16
58 29 63 29 6 0 23 5 39 12 15 6 35 12 43 13 8 1 33 14 54 29 22 15 46 24 53
22 7 -3 13 -2 13 2 0 4 12 12 28 19 15 6 54 24 87 39 75 34 151 53 190 47 17
-3 57 -14 90 -26z m-2262 -809 c23 -12 47 -22 52 -23 24 -3 74 -19 122 -41 29
-13 65 -26 80 -30 16 -4 33 -10 38 -14 6 -4 28 -13 50 -20 22 -7 72 -28 111
-46 40 -18 93 -38 119 -44 26 -6 60 -17 76 -25 15 -8 35 -15 44 -15 9 0 54
-18 100 -40 46 -22 89 -40 95 -40 5 0 29 -9 53 -19 93 -42 140 -61 154 -61 8
0 48 -16 89 -35 41 -19 80 -35 88 -35 7 0 24 -8 37 -19 13 -10 51 -24 84 -31
33 -7 62 -15 65 -19 11 -14 79 -40 158 -60 46 -12 98 -31 115 -41 18 -11 41
-20 52 -20 11 0 43 -12 70 -25 28 -14 68 -28 90 -31 22 -4 45 -11 51 -15 6 -5
14 -6 17 -3 9 9 67 -19 67 -32 0 -7 -10 -18 -22 -27 -13 -8 -46 -37 -74 -63
-99 -96 -158 -149 -179 -164 -24 -16 -115 -92 -150 -125 -11 -11 -34 -26 -49
-33 -16 -7 -26 -16 -22 -19 6 -6 -24 -27 -56 -39 -10 -3 -18 -10 -18 -14 0
-15 -39 -21 -59 -10 -11 5 -31 11 -45 12 -15 1 -26 6 -26 9 0 4 -33 17 -72 29
-40 12 -107 35 -148 51 -41 16 -78 29 -82 29 -4 0 -42 16 -85 36 -43 20 -95
44 -115 53 -21 9 -38 19 -38 24 0 4 -7 7 -16 7 -18 0 -144 46 -314 115 -63 26
-144 58 -180 72 -36 14 -83 33 -105 43 -22 9 -51 21 -65 25 -14 4 -56 22 -95
40 -38 18 -78 36 -88 39 -11 4 -15 11 -11 18 4 7 4 10 -1 6 -4 -4 -20 -1 -34
7 -14 8 -57 27 -96 43 -99 41 -97 40 -130 61 -16 11 -36 20 -43 20 -7 1 -69
28 -138 61 -68 33 -132 60 -142 60 -9 0 -30 11 -46 23 l-29 24 35 21 c20 12
38 22 42 22 3 0 17 10 30 21 26 23 56 41 94 58 12 6 22 15 22 21 0 5 23 21 51
36 29 14 60 33 70 43 10 9 41 28 68 41 28 14 51 28 51 31 0 4 15 12 33 20 17
7 54 28 81 46 57 39 64 40 119 11z m4592 -298 c57 -58 129 -129 159 -157 31
-29 56 -57 56 -62 0 -5 7 -12 16 -15 9 -3 14 -11 12 -16 -5 -16 -276 -126
-286 -116 -2 3 -24 -7 -49 -21 -25 -13 -47 -22 -50 -19 -4 3 -12 1 -20 -5 -7
-7 -33 -11 -58 -11 -34 1 -48 -3 -59 -19 -7 -11 -29 -23 -47 -25 -19 -3 -52
-14 -74 -24 -22 -11 -56 -22 -75 -26 -19 -4 -68 -17 -108 -30 -40 -13 -83 -24
-95 -24 -12 0 -32 -6 -43 -14 -11 -8 -40 -19 -64 -25 -47 -12 -71 -22 -130
-51 -19 -10 -57 -23 -84 -29 -27 -7 -63 -19 -80 -28 -17 -9 -44 -20 -61 -24
-16 -4 -55 -17 -85 -28 -30 -12 -66 -23 -80 -24 -29 -4 -132 -34 -175 -52 -54
-22 -101 -35 -126 -35 -13 0 -34 -7 -46 -15 -12 -8 -34 -17 -50 -19 -15 -2
-40 -8 -54 -14 -14 -5 -45 -16 -70 -23 -24 -7 -50 -17 -57 -22 -14 -11 -39 14
-172 168 -36 42 -82 92 -102 112 -21 20 -38 42 -38 48 0 7 -7 19 -16 26 -9 7
-31 36 -50 64 -19 27 -50 73 -68 100 -42 60 -42 61 -13 68 27 7 101 33 142 51
17 7 59 19 95 26 36 7 70 16 75 20 6 5 42 16 80 25 39 10 84 23 100 30 17 8
50 23 75 34 25 11 59 23 75 27 17 4 41 13 55 21 20 11 148 46 290 80 14 3 27
9 30 13 3 4 52 21 110 39 58 18 114 36 125 41 11 5 45 14 75 20 30 7 105 27
165 46 61 18 122 36 138 40 15 3 44 15 64 25 21 10 45 19 55 19 9 0 20 5 23
10 3 6 15 10 25 10 10 0 40 11 66 25 26 14 60 25 76 25 16 0 31 6 34 15 4 8
18 15 33 15 14 0 33 5 41 10 12 8 34 -11 104 -83 48 -50 135 -139 191 -197z
m-4655 -474 c11 -14 92 -58 115 -63 13 -2 174 -71 197 -83 10 -6 46 -19 80
-31 35 -12 68 -26 75 -31 7 -5 17 -7 23 -3 5 3 10 2 10 -3 0 -5 19 -14 43 -21
23 -7 51 -16 62 -21 89 -39 190 -79 215 -85 16 -4 30 -11 30 -16 0 -5 10 -9
23 -9 12 0 36 -8 53 -19 17 -10 41 -22 55 -26 13 -4 56 -22 94 -40 39 -18 121
-50 183 -70 61 -20 112 -41 112 -46 0 -5 8 -9 18 -9 24 0 90 -24 104 -38 7 -7
23 -12 36 -12 27 0 122 54 135 76 4 7 32 30 62 50 30 20 55 39 55 44 0 4 18
19 39 33 22 14 50 36 63 49 12 13 43 39 68 58 57 45 80 68 80 80 0 6 3 10 8
10 4 0 26 18 50 40 23 22 47 40 54 40 8 0 9 -33 4 -122 -4 -68 -6 -204 -5
-303 3 -162 2 -471 -1 -535 -1 -14 -1 -128 -1 -255 0 -126 -1 -306 -1 -400 -1
-93 1 -285 4 -425 2 -140 2 -265 0 -277 l-4 -21 -89 24 c-50 13 -98 28 -108
34 -10 5 -21 7 -24 4 -3 -3 -13 -1 -24 4 -10 6 -90 31 -178 57 -211 61 -286
85 -299 93 -6 4 -23 7 -38 8 -15 1 -48 12 -75 25 -26 13 -55 24 -63 24 -14 2
-96 28 -130 42 -8 3 -20 7 -26 8 -6 2 -27 10 -45 18 -19 9 -63 25 -99 37 -36
12 -79 28 -97 36 -17 7 -35 14 -39 14 -4 0 -26 9 -48 19 -67 31 -173 71 -190
71 -8 0 -18 5 -21 10 -3 6 -15 10 -25 10 -10 0 -20 4 -22 10 -1 5 -39 23 -83
39 -273 100 -371 140 -435 176 -28 16 -29 27 -15 345 9 217 9 603 0 1028 -7
320 -6 362 7 362 9 0 21 -7 28 -14z m2312 -117 c14 -14 37 -46 49 -70 13 -24
28 -49 34 -55 5 -6 26 -30 45 -54 19 -23 56 -63 81 -89 26 -25 63 -66 82 -91
19 -25 62 -73 95 -107 l61 -63 23 23 c25 25 109 67 133 67 9 0 30 8 48 17 29
15 112 36 195 50 17 3 32 9 32 14 0 4 17 11 38 15 20 3 46 12 57 19 11 6 34
15 50 18 59 11 180 47 205 61 14 7 42 16 63 20 20 4 65 20 100 36 34 17 69 30
77 30 9 0 24 6 35 14 11 7 58 26 105 41 47 15 109 36 138 46 30 10 64 19 75
19 12 0 41 7 65 15 24 9 48 13 53 10 5 -4 9 -1 9 4 0 6 8 11 18 11 10 0 23 5
29 11 7 7 18 9 25 6 16 -6 16 -115 0 -144 -7 -11 -7 -24 0 -36 5 -10 7 -35 3
-55 -3 -20 -8 -125 -10 -232 -2 -107 -7 -260 -10 -340 -3 -80 -7 -217 -10
-305 -3 -88 -8 -170 -10 -182 -3 -13 -2 -23 2 -23 5 0 7 -77 6 -172 -2 -154
-4 -173 -20 -182 -31 -18 -87 -36 -120 -38 -18 -2 -33 -6 -33 -9 0 -4 -15 -9
-32 -13 -54 -10 -331 -88 -365 -102 -17 -8 -43 -14 -58 -14 -14 0 -36 -5 -48
-12 -12 -6 -29 -12 -37 -13 -17 -2 -84 -22 -115 -35 -11 -4 -48 -20 -81 -34
-34 -14 -68 -26 -76 -26 -8 0 -18 -4 -23 -9 -6 -5 -35 -19 -65 -31 -30 -12
-62 -28 -70 -35 -19 -17 -140 -58 -148 -50 -3 3 -16 -5 -29 -17 -14 -13 -38
-22 -62 -24 -22 -1 -49 -9 -62 -18 -13 -9 -30 -16 -39 -16 -9 0 -33 -9 -55
-20 -21 -11 -55 -23 -74 -26 -20 -4 -54 -15 -76 -25 -22 -10 -71 -28 -110 -39
-38 -12 -99 -34 -135 -49 -36 -16 -80 -31 -97 -34 -30 -6 -33 -4 -35 21 -1 15
-3 45 -5 67 -6 73 -6 47 -4 1010 1 504 9 1167 15 1240 2 17 4 41 5 55 l2 25
17 -25 c9 -14 29 -37 44 -51z"/>
</g>
</svg>
