<?xml version="1.0" standalone="no"?>
<!DOCTYPE svg PUBLIC "-//W3C//DTD SVG 20010904//EN"
 "http://www.w3.org/TR/2001/REC-SVG-20010904/DTD/svg10.dtd">
<svg version="1.0" xmlns="http://www.w3.org/2000/svg"
 width="300.000000pt" height="367.000000pt" viewBox="0 0 300.000000 367.000000"
 preserveAspectRatio="xMidYMid meet">
<metadata>
Created by potrace 1.10, written by Peter Selinger 2001-2011
</metadata>
<g transform="translate(0.000000,367.000000) scale(0.100000,-0.100000)"
fill="#000000" stroke="none">
<path d="M1275 3580 c-337 -21 -690 -89 -1018 -197 -76 -24 -147 -53 -158 -64
-18 -18 -19 -43 -19 -753 0 -726 5 -859 35 -1011 14 -67 18 -73 81 -133 75
-70 224 -151 329 -177 139 -36 329 -38 481 -5 96 20 205 53 202 61 -2 5 -168
132 -371 283 -202 151 -364 277 -360 279 5 3 53 17 108 31 138 37 135 36 135
47 0 6 -52 134 -117 285 -64 151 -114 276 -112 278 2 3 120 -30 262 -71 141
-42 260 -73 263 -70 3 3 15 75 27 161 11 86 24 156 28 156 4 0 114 -115 245
-255 130 -141 238 -254 240 -252 2 2 -44 210 -101 462 -58 251 -104 461 -103
465 2 5 88 -37 191 -92 104 -55 190 -98 192 -96 12 12 233 634 227 639 -23 22
-487 42 -687 29z"/>
<path d="M2070 3536 c0 -10 223 -611 229 -618 4 -4 92 37 196 92 104 54 190
98 191 97 2 -1 -46 -214 -106 -472 -59 -259 -107 -471 -106 -472 1 -1 99 104
219 233 l217 235 0 329 c0 180 -3 336 -6 345 -10 25 -50 41 -248 100 -206 60
-586 146 -586 131z"/>
<path d="M1956 3297 c-137 -379 -179 -487 -187 -487 -4 0 -77 36 -160 80 -83
45 -152 80 -153 78 -1 -2 51 -232 115 -513 65 -280 117 -516 116 -523 -1 -8
-128 122 -281 288 -153 165 -282 297 -286 293 -4 -4 -13 -55 -20 -113 -7 -58
-15 -112 -19 -121 -5 -15 -35 -8 -238 51 l-232 67 13 -31 c7 -17 54 -128 105
-247 50 -119 91 -221 91 -227 0 -5 -37 -20 -82 -32 -46 -12 -87 -25 -91 -30
-5 -4 140 -118 322 -253 l330 -246 113 40 c138 50 375 111 523 136 84 13 162
18 325 17 232 0 327 -13 489 -69 54 -18 77 -22 82 -13 9 14 36 157 50 258 13
104 24 818 12 805 -20 -20 -537 -580 -540 -584 -15 -21 4 72 108 519 65 283
119 519 119 523 0 5 -70 -28 -156 -73 -86 -46 -160 -78 -164 -74 -5 5 -61 150
-124 323 -64 173 -117 315 -118 317 -2 1 -29 -71 -62 -159z"/>
<path d="M190 1291 c0 -29 37 -85 85 -130 111 -101 280 -179 471 -218 76 -15
126 -17 339 -14 469 8 718 6 820 -7 208 -27 401 -80 529 -144 l59 -30 19 23
c39 49 128 184 128 195 0 14 -113 66 -215 97 -146 46 -280 62 -505 61 -219 0
-291 -7 -580 -56 -160 -28 -210 -32 -365 -32 -205 0 -297 14 -451 69 -111 39
-205 90 -280 151 -30 24 -54 40 -54 35z"/>
<path d="M325 989 c224 -370 526 -627 997 -847 177 -83 157 -82 305 -17 179
79 318 154 441 237 119 81 119 69 1 138 -144 85 -335 155 -534 195 -123 25
-181 33 -435 60 -309 34 -558 108 -739 221 -24 15 -40 21 -36 13z"/>
</g>
</svg>
