{
	"asset":{
		"generator":"Khronos glTF Blender I/O v3.6.27",
		"version":"2.0"
	},
	"extensionsUsed":[
		"KHR_materials_transmission",
		"KHR_materials_ior"
	],
	"scene":0,
	"scenes":[
		{
			"name":"Scene",
			"nodes":[
				0,
				1
			]
		}
	],
	"nodes":[
		{
			"mesh":0,
			"name":"Mesh_0",
			"rotation":[
				-0.0937434658408165,
				-0.016038402915000916,
				-0.004552303347736597,
				0.9954568147659302
			],
			"scale":[
				0.35239744186401367,
				0.35239750146865845,
				0.35239750146865845
			],
			"translation":[
				0.07790637016296387,
				1.0275094509124756,
				3.29642391204834
			]
		},
		{
			"mesh":1,
			"name":"sugar crystal",
			"scale":[
				0.0034919497556984425,
				0.0034919497556984425,
				0.0034919497556984425
			],
			"translation":[
				1.6362266540527344,
				0.16971305012702942,
				-0.6162710189819336
			]
		}
	],
	"materials":[
		{
			"doubleSided":true,
			"name":"Candy.002",
			"pbrMetallicRoughness":{}
		},
		{
			"doubleSided":true,
			"extensions":{
				"KHR_materials_transmission":{
					"transmissionFactor":1
				},
				"KHR_materials_ior":{
					"ior":1.4500000476837158
				}
			},
			"name":"Sugar Crystal",
			"pbrMetallicRoughness":{
				"metallicFactor":0,
				"roughnessFactor":0.24957266449928284
			}
		}
	],
	"meshes":[
		{
			"name":"Mesh_0",
			"primitives":[
				{
					"attributes":{
						"COLOR_0":0,
						"POSITION":1,
						"NORMAL":2
					},
					"indices":3,
					"material":0
				}
			]
		},
		{
			"name":"Cube",
			"primitives":[
				{
					"attributes":{
						"POSITION":4,
						"NORMAL":5,
						"TEXCOORD_0":6
					},
					"indices":7,
					"material":1
				}
			]
		}
	],
	"accessors":[
		{
			"bufferView":0,
			"componentType":5123,
			"count":618002,
			"normalized":true,
			"type":"VEC4"
		},
		{
			"bufferView":1,
			"componentType":5126,
			"count":618002,
			"max":[
				0.3147459328174591,
				2.0171072483062744,
				-8.979589462280273
			],
			"min":[
				-0.8259602189064026,
				-1.1917839050292969,
				-10.083897590637207
			],
			"type":"VEC3"
		},
		{
			"bufferView":2,
			"componentType":5126,
			"count":618002,
			"type":"VEC3"
		},
		{
			"bufferView":3,
			"componentType":5125,
			"count":3692928,
			"type":"SCALAR"
		},
		{
			"bufferView":4,
			"componentType":5126,
			"count":24,
			"max":[
				0.47046661376953125,
				0.47046658396720886,
				0.47046661376953125
			],
			"min":[
				-0.47046661376953125,
				-0.47046658396720886,
				-0.47046661376953125
			],
			"type":"VEC3"
		},
		{
			"bufferView":5,
			"componentType":5126,
			"count":24,
			"type":"VEC3"
		},
		{
			"bufferView":6,
			"componentType":5126,
			"count":24,
			"type":"VEC2"
		},
		{
			"bufferView":7,
			"componentType":5123,
			"count":36,
			"type":"SCALAR"
		}
	],
	"bufferViews":[
		{
			"buffer":0,
			"byteLength":4944016,
			"byteOffset":0,
			"target":34962
		},
		{
			"buffer":0,
			"byteLength":7416024,
			"byteOffset":4944016,
			"target":34962
		},
		{
			"buffer":0,
			"byteLength":7416024,
			"byteOffset":12360040,
			"target":34962
		},
		{
			"buffer":0,
			"byteLength":14771712,
			"byteOffset":19776064,
			"target":34963
		},
		{
			"buffer":0,
			"byteLength":288,
			"byteOffset":34547776,
			"target":34962
		},
		{
			"buffer":0,
			"byteLength":288,
			"byteOffset":34548064,
			"target":34962
		},
		{
			"buffer":0,
			"byteLength":192,
			"byteOffset":34548352,
			"target":34962
		},
		{
			"buffer":0,
			"byteLength":72,
			"byteOffset":34548544,
			"target":34963
		}
	],
	"buffers":[
		{
			"byteLength":34548616,
			"uri":"Candy%20of%20me%202.bin"
		}
	]
}
