<?xml version="1.0" encoding="UTF-8"?><svg xmlns="http://www.w3.org/2000/svg" xmlns:xlink="http://www.w3.org/1999/xlink" width="262" height="362" viewBox="-0.5 -0.5 262 362" ><style><![CDATA[.B{pointer-events:all}.C{fill:#b0b0b0}.D{font-family:Helvetica}.E{font-size:12px}.F{text-anchor:middle}.G{pointer-events:stroke}.H{stroke:#b0b0b0}.I{stroke-miterlimit:10}]]></style><g class="H I"><path d="M51 41v43.63" fill="none" class="G"/><use xlink:href="#B" class="B C"/></g><ellipse cx="51" cy="21" rx="50" ry="20" fill="#e3c800" class="B"/><text x="50.5" y="24.5" fill="#000" class="D E F">Start</text><g class="H I"><path d="M51 161v43.63" fill="none" class="G"/><use xlink:href="#B" y="120" class="B C"/><path d="M101 126h110v78.63" fill="none" class="G"/><use xlink:href="#B" x="160" y="120" class="B C"/></g><path d="M51 91l50 35-50 35-50-35z" fill="#d80073" class="B"/><text x="50.5" y="129.5" fill="#fff" class="D E F">Condition</text><g class="H I"><path d="M51 256v53.63" fill="none" class="G"/><use xlink:href="#B" y="225" class="B C"/></g><rect x="1" y="211" width="100" height="45" rx="7" fill="#1ba1e2" class="B"/><text x="50.5" y="236.5" fill="#fff" class="D E F">If block</text><g class="H I"><path d="M211 256v83H107.37" fill="none" class="G"/><path d="M102.12 339l7-3.5-1.75 3.5 1.75 3.5z" class="B C"/></g><rect x="161" y="211" width="100" height="45" rx="7" fill="#1ba1e2" class="B"/><text x="210.5" y="236.5" fill="#fff" class="D E F">Else block</text><path d="M31.61 316h38.78c16.9 0 30.61 10.07 30.61 22.5S87.29 361 70.39 361H31.61C14.71 361 1 350.93 1 338.5S14.71 316 31.61 316z" fill="#e3c800" class="B"/><text x="50.5" y="341.5" fill="#000" class="D E F">End</text><text x="144.5" y="118.5" class="C D E F">false</text><text x="71.5" y="185.5" class="C D E F">true</text><defs ><path id="B" d="M51 89.88l-3.5-7 3.5 1.75 3.5-1.75z"/></defs></svg>