{
  "accessors": [
    {
      "bufferView": 2,
      "componentType": 5126,
      "count": 25600,
      "max": [
        70.48674011230469,
        36.202659606933594,
        199.848876953125
      ],
      "min": [
        -70.48674011230469,
        -36.20265579223633,
        -199.848876953125
      ],
      "type": "VEC3"
    },
    {
      "bufferView": 2,
      "byteOffset": 307200,
      "componentType": 5126,
      "count": 25600,
      "max": [
        1.0,
        1.0,
        1.0
      ],
      "min": [
        -1.0,
        -1.0,
        -1.0
      ],
      "type": "VEC3"
    },
    {
      "bufferView": 1,
      "componentType": 5126,
      "count": 25600,
      "max": [
        1.0,
        1.0
      ],
      "min": [
        0.0,
        0.0
      ],
      "type": "VEC2"
    },
    {
      "bufferView": 0,
      "componentType": 5125,
      "count": 145920,
      "type": "SCALAR"
    }
  ],
  "asset": {
    "extras": {
      "author": "bariacg (https://sketchfab.com/bariacg)",
      "license": "SKETCHFAB Standard (https://sketchfab.com/licenses)",
      "source": "https://sketchfab.com/3d-models/bone-c5b53b551b3946179c2f4b154a18e3b4",
      "title": "Bone"
    },
    "generator": "Sketchfab-12.63.0",
    "version": "2.0"
  },
  "bufferViews": [
    {
      "buffer": 0,
      "byteLength": 583680,
      "name": "floatBufferViews",
      "target": 34963
    },
    {
      "buffer": 0,
      "byteLength": 204800,
      "byteOffset": 583680,
      "byteStride": 8,
      "name": "floatBufferViews",
      "target": 34962
    },
    {
      "buffer": 0,
      "byteLength": 614400,
      "byteOffset": 788480,
      "byteStride": 12,
      "name": "floatBufferViews",
      "target": 34962
    }
  ],
  "buffers": [
    {
      "byteLength": 1402880,
      "uri": "scene.bin"
    }
  ],
  "materials": [
    {
      "doubleSided": true,
      "name": "Material_25",
      "pbrMetallicRoughness": {
        "baseColorFactor": [
          0.310345886,
          0.2708195499,
          0.2534089717,
          1.0
        ],
        "metallicFactor": 0.0,
        "roughnessFactor": 0.5287728658999999
      }
    }
  ],
  "meshes": [
    {
      "name": "Bone_Material #25_0",
      "primitives": [
        {
          "attributes": {
            "NORMAL": 1,
            "POSITION": 0,
            "TEXCOORD_0": 2
          },
          "indices": 3,
          "material": 0,
          "mode": 4
        }
      ]
    }
  ],
  "nodes": [
    {
      "children": [
        1
      ],
      "matrix": [
        1.0,
        0.0,
        0.0,
        0.0,
        0.0,
        2.220446049250313e-16,
        -1.0,
        0.0,
        0.0,
        1.0,
        2.220446049250313e-16,
        0.0,
        0.0,
        0.0,
        0.0,
        1.0
      ],
      "name": "Sketchfab_model"
    },
    {
      "children": [
        2
      ],
      "matrix": [
        1.0,
        0.0,
        0.0,
        0.0,
        0.0,
        0.0,
        1.0,
        0.0,
        0.0,
        -1.0,
        0.0,
        0.0,
        0.0,
        0.0,
        0.0,
        1.0
      ],
      "name": "4c17c5c52c3b4d3685ff3ef0c68659b5.fbx"
    },
    {
      "children": [
        3
      ],
      "name": "RootNode"
    },
    {
      "children": [
        4
      ],
      "matrix": [
        0.7254079580307007,
        0.0,
        0.0,
        0.0,
        0.0,
        0.7254079580306999,
        3.170858779225919e-08,
        0.0,
        0.0,
        -3.170858779225919e-08,
        0.7254079580306999,
        0.0,
        0.0,
        0.0,
        0.0,
        1.0
      ],
      "name": "Bone"
    },
    {
      "mesh": 0,
      "name": "Bone_Material #25_0"
    }
  ],
  "scene": 0,
  "scenes": [
    {
      "name": "Sketchfab_Scene",
      "nodes": [
        0
      ]
    }
  ]
}
