{
	"asset":{
		"generator":"Khronos glTF Blender I/O v3.6.27",
		"version":"2.0"
	},
	"extensionsUsed":[
		"KHR_materials_transmission",
		"KHR_materials_ior"
	],
	"scene":0,
	"scenes":[
		{
			"name":"Scene",
			"nodes":[
				0,
				1,
				2,
				3
			]
		}
	],
	"nodes":[
		{
			"mesh":0,
			"name":"Sugar crystal",
			"translation":[
				0,
				0,
				-0.042385395616292953
			]
		},
		{
			"mesh":1,
			"name":"Ground",
			"translation":[
				0,
				0,
				-0.8327745795249939
			]
		},
		{
			"mesh":2,
			"name":"Jube1.006",
			"rotation":[
				0,
				-0.12105656415224075,
				0,
				0.9926456212997437
			],
			"translation":[
				-0.03311452642083168,
				0.0041470518335700035,
				0.086410291492939
			]
		},
		{
			"mesh":3,
			"name":"Jube3.002",
			"rotation":[
				0,
				0.958708643913269,
				0,
				0.28439009189605713
			],
			"translation":[
				-0.026169758290052414,
				0.008352885022759438,
				0.06188902631402016
			]
		}
	],
	"materials":[
		{
			"doubleSided":true,
			"extensions":{
				"KHR_materials_transmission":{
					"transmissionFactor":1
				},
				"KHR_materials_ior":{
					"ior":1.4500000476837158
				}
			},
			"name":"Sugar Crystal",
			"pbrMetallicRoughness":{
				"metallicFactor":0,
				"roughnessFactor":0.24957266449928284
			}
		},
		{
			"doubleSided":true,
			"name":"Floor",
			"pbrMetallicRoughness":{
				"baseColorFactor":[
					0.06901021301746368,
					0.06901021301746368,
					0.06901021301746368,
					1
				],
				"metallicFactor":0
			}
		},
		{
			"doubleSided":true,
			"name":"Candy",
			"pbrMetallicRoughness":{}
		}
	],
	"meshes":[
		{
			"name":"Cube.002",
			"primitives":[
				{
					"attributes":{
						"POSITION":0,
						"NORMAL":1,
						"TEXCOORD_0":2
					},
					"indices":3,
					"material":0
				}
			]
		},
		{
			"name":"Plane",
			"primitives":[
				{
					"attributes":{
						"POSITION":4,
						"NORMAL":5,
						"TEXCOORD_0":6
					},
					"indices":7,
					"material":1
				}
			]
		},
		{
			"name":"Cube.016",
			"primitives":[
				{
					"attributes":{
						"POSITION":8,
						"NORMAL":9,
						"TEXCOORD_0":10
					},
					"indices":11,
					"material":2
				}
			]
		},
		{
			"name":"Cube.018",
			"primitives":[
				{
					"attributes":{
						"POSITION":12,
						"NORMAL":13,
						"TEXCOORD_0":14
					},
					"indices":11,
					"material":2
				}
			]
		}
	],
	"accessors":[
		{
			"bufferView":0,
			"componentType":5126,
			"count":24,
			"max":[
				0.0005000000237487257,
				0.0005000000237487257,
				0.0005000000237487257
			],
			"min":[
				-0.0005000000237487257,
				-0.0005000000237487257,
				-0.0005000000237487257
			],
			"type":"VEC3"
		},
		{
			"bufferView":1,
			"componentType":5126,
			"count":24,
			"type":"VEC3"
		},
		{
			"bufferView":2,
			"componentType":5126,
			"count":24,
			"type":"VEC2"
		},
		{
			"bufferView":3,
			"componentType":5123,
			"count":36,
			"type":"SCALAR"
		},
		{
			"bufferView":4,
			"componentType":5126,
			"count":1152,
			"max":[
				0.08841711282730103,
				0.03861846402287483,
				0.9489327669143677
			],
			"min":[
				-0.13441172242164612,
				0,
				0.7025976181030273
			],
			"type":"VEC3"
		},
		{
			"bufferView":5,
			"componentType":5126,
			"count":1152,
			"type":"VEC3"
		},
		{
			"bufferView":6,
			"componentType":5126,
			"count":1152,
			"type":"VEC2"
		},
		{
			"bufferView":7,
			"componentType":5123,
			"count":6510,
			"type":"SCALAR"
		},
		{
			"bufferView":8,
			"componentType":5126,
			"count":23,
			"max":[
				0.007241042330861092,
				0.00827278383076191,
				0.007241042330861092
			],
			"min":[
				-0.007241042330861092,
				-0.00420015212148428,
				-0.007241042796522379
			],
			"type":"VEC3"
		},
		{
			"bufferView":9,
			"componentType":5126,
			"count":23,
			"type":"VEC3"
		},
		{
			"bufferView":10,
			"componentType":5126,
			"count":23,
			"type":"VEC2"
		},
		{
			"bufferView":11,
			"componentType":5123,
			"count":84,
			"type":"SCALAR"
		},
		{
			"bufferView":12,
			"componentType":5126,
			"count":23,
			"max":[
				0.007241042330861092,
				0.00827278383076191,
				0.007241042330861092
			],
			"min":[
				-0.007241042330861092,
				-0.00420015212148428,
				-0.007241042796522379
			],
			"type":"VEC3"
		},
		{
			"bufferView":13,
			"componentType":5126,
			"count":23,
			"type":"VEC3"
		},
		{
			"bufferView":14,
			"componentType":5126,
			"count":23,
			"type":"VEC2"
		}
	],
	"bufferViews":[
		{
			"buffer":0,
			"byteLength":288,
			"byteOffset":0,
			"target":34962
		},
		{
			"buffer":0,
			"byteLength":288,
			"byteOffset":288,
			"target":34962
		},
		{
			"buffer":0,
			"byteLength":192,
			"byteOffset":576,
			"target":34962
		},
		{
			"buffer":0,
			"byteLength":72,
			"byteOffset":768,
			"target":34963
		},
		{
			"buffer":0,
			"byteLength":13824,
			"byteOffset":840,
			"target":34962
		},
		{
			"buffer":0,
			"byteLength":13824,
			"byteOffset":14664,
			"target":34962
		},
		{
			"buffer":0,
			"byteLength":9216,
			"byteOffset":28488,
			"target":34962
		},
		{
			"buffer":0,
			"byteLength":13020,
			"byteOffset":37704,
			"target":34963
		},
		{
			"buffer":0,
			"byteLength":276,
			"byteOffset":50724,
			"target":34962
		},
		{
			"buffer":0,
			"byteLength":276,
			"byteOffset":51000,
			"target":34962
		},
		{
			"buffer":0,
			"byteLength":184,
			"byteOffset":51276,
			"target":34962
		},
		{
			"buffer":0,
			"byteLength":168,
			"byteOffset":51460,
			"target":34963
		},
		{
			"buffer":0,
			"byteLength":276,
			"byteOffset":51628,
			"target":34962
		},
		{
			"buffer":0,
			"byteLength":276,
			"byteOffset":51904,
			"target":34962
		},
		{
			"buffer":0,
			"byteLength":184,
			"byteOffset":52180,
			"target":34962
		}
	],
	"buffers":[
		{
			"byteLength":52364,
			"uri":"data:application/octet-stream;base64,"
		}
	]
}
